<?xml version="1.0" encoding="utf-8"?>
<!-- Generator: Adobe Illustrator 13.0.0, SVG Export Plug-In . SVG Version: 6.00 Build 14948)  -->
<!DOCTYPE svg PUBLIC "-//W3C//DTD SVG 1.1//EN" "http://www.w3.org/Graphics/SVG/1.1/DTD/svg11.dtd">
<svg version="1.1" id="Layer_1" xmlns="http://www.w3.org/2000/svg" xmlns:xlink="http://www.w3.org/1999/xlink" x="0px" y="0px"
	 width="800px" height="600px" viewBox="0 0 800 600" enable-background="new 0 0 800 600" xml:space="preserve">
<title>SAIRA LOGOS SEP 2018</title>
<g id="Layer_1_1_">
	<path d="M186.771,215.439c-4.622-0.01-9.237,0.364-13.797,1.12c1.515,43.519-29.485,81.41-72.443,88.544
		c1.764,47.725,41.882,84.982,89.606,83.218s84.981-41.882,83.217-89.606C271.633,252.167,233.351,215.347,186.771,215.439"/>
	<path d="M86.405,133.118c-47.793-0.045-86.573,38.662-86.618,86.455c-0.045,47.793,38.662,86.573,86.455,86.618
		c4.743,0.005,9.478-0.381,14.157-1.152c-1.515-43.519,29.486-81.41,72.443-88.545C171.142,169.978,132.951,133.14,86.405,133.118"
		/>
	<path d="M172.974,216.493c-42.957,7.135-73.958,45.026-72.443,88.545C143.488,297.903,174.488,260.012,172.974,216.493"/>
	<path d="M231.652,300.527c0.033-0.494,0.033-0.989,0-1.482v-1.251c0-0.56,0-1.087-0.23-1.646c-0.066-0.598-0.166-1.191-0.296-1.778
		c0-0.329,0-0.659-0.23-0.988c-0.231-0.329,0-0.725-0.231-1.086l-0.197-0.692c0-0.395-0.198-0.79-0.33-1.185
		c-0.131-0.396-0.23-0.823-0.362-1.219v-0.527c-0.198-0.461-0.33-0.922-0.527-1.416l-0.165-0.428
		c-0.203-0.539-0.434-1.066-0.691-1.581v-0.165c-0.17-0.451-0.368-0.891-0.593-1.317l-0.329-0.659l-0.593-1.119l-0.329-0.626
		l-0.593-0.955c0-0.296-0.33-0.592-0.527-0.889c-0.198-0.296-0.362-0.593-0.593-0.889l-0.922-0.625l-0.955-1.383
		c-0.362-0.461-0.725-0.955-1.12-1.416l-0.23-0.296l-0.988-1.152l-0.33-0.362l-1.119-1.186l0,0l-1.317-1.284
		c-0.428-0.428-0.922-0.823-1.383-1.251h-0.198c-0.428-0.395-0.922-0.791-1.383-1.152l-1.548-1.153h-0.165l-1.515-1.021
		l-1.679-1.021l-1.778-0.955l-1.778-0.889c-0.823-0.396-1.712-0.758-2.568-1.087l-1.186-0.428l-1.811-0.823l-2.074-0.56h-0.461
		l-1.844-0.395l-2.009-0.362h-0.197c-20.936-2.97-40.056-13.514-53.74-29.636l0,0c-6.063-7.097-10.945-15.125-14.456-23.774
		c0-0.395-0.296-0.757-0.428-1.12c-9.416-22.101-34.966-32.384-57.068-22.968c-6.421,2.736-12.09,6.977-16.527,12.365
		c-0.428,0.56-0.856,1.12-1.317,1.646c-8.722,11.798-10.925,27.192-5.861,40.963l0,0c0.263,0.659,0.56,1.285,0.79,1.943l0,0
		c5.977,13.91,18.765,23.704,33.752,25.849l0,0c6.629,0.964,13.126,2.688,19.362,5.137c1.317,0.527,2.634,1.054,3.952,1.646l0,0
		l3.688,1.745l0,0l0,0l0,0c18.466,9.359,33.007,24.974,41.029,44.059l0,0c0.33,0.725,0.626,1.448,0.889,2.173
		c0.329,0.758,0.691,1.516,1.054,2.24l0.988,1.844l0.33,0.56l0,0c0.329,0.56,0.658,1.087,1.021,1.613s0.823,1.218,1.251,1.812
		l0.527,0.757l0,0l1.185,1.515c0.527,0.626,1.054,1.219,1.614,1.812l0,0c0.56,0.593,1.12,1.185,1.712,1.745
		c0.593,0.56,1.186,1.119,1.844,1.646c0.659,0.526,1.251,1.054,1.91,1.58l1.284,0.922c0.691,0.494,1.449,0.988,2.206,1.449
		l1.778,1.021l1.35,0.724l2.173,1.021c0.724,0.33,1.481,0.626,2.239,0.89l2.338,0.823l1.449,0.428l1.152,0.264l0.823,0.197
		c0.441,0.134,0.893,0.232,1.35,0.297l2.009,0.361h0.197c0.691,0,1.35,0.198,2.042,0.23c22.988,2.218,43.691-13.942,47.121-36.781
		C231.689,306.078,231.81,303.298,231.652,300.527z"/>
	<path d="M180.152,345.869c-24.223-3.998-40.619-26.877-36.62-51.1c3.999-24.223,26.877-40.618,51.1-36.62
		c24.211,3.997,40.605,26.856,36.625,51.071c-3.961,24.21-26.799,40.626-51.01,36.664
		C180.215,345.88,180.184,345.875,180.152,345.869z"/>
	<path d="M258.423,241.486c-23.524-3.88-39.449-26.095-35.569-49.619c3.88-23.524,26.095-39.449,49.619-35.569
		c23.514,3.878,39.437,26.076,35.573,49.592c-3.865,23.526-26.07,39.465-49.597,35.6
		C258.441,241.489,258.433,241.487,258.423,241.486z"/>
</g>
</svg>
